<svg width="18" height="18" viewBox="0 0 18 18" fill="none" xmlns="http://www.w3.org/2000/svg">
<path d="M11.6 8.59998C11.6 10.2568 10.2569 11.6 8.60001 11.6M11.6 8.59998C11.6 6.94312 10.2569 5.59998 8.60001 5.59998M11.6 8.59998H13.6M8.60001 11.6C6.94315 11.6 5.60001 10.2568 5.60001 8.59998M8.60001 11.6V13.6M5.60001 8.59998C5.60001 6.94312 6.94315 5.59998 8.60001 5.59998M5.60001 8.59998H3.60001M8.60001 5.59998V3.59998M8.60001 3.59998V0.599976M8.60001 3.59998L5.60001 1.59998M8.60001 3.59998L11.6 1.59998M13.6 8.59998H16.6M13.6 8.59998L15.6 5.59998M13.6 8.59998L15.6 11.6M8.60001 13.6V16.6M8.60001 13.6L5.60001 15.6M8.60001 13.6L11.6 15.6M3.60001 8.59998H0.600006M3.60001 8.59998L1.60001 5.59998M3.60001 8.59998L1.60001 11.6" stroke="#161C48" stroke-width="1.2" stroke-linecap="round"/>
</svg>
